<?xml version="1.0" encoding="UTF-8" standalone="no"?>
<!DOCTYPE svg PUBLIC "-//W3C//DTD SVG 1.1//EN" "http://www.w3.org/Graphics/SVG/1.1/DTD/svg11.dtd">
<svg width="100%" height="100%" viewBox="0 0 512 511" version="1.1" xmlns="http://www.w3.org/2000/svg" xmlns:xlink="http://www.w3.org/1999/xlink" xml:space="preserve" xmlns:serif="http://www.serif.com/" style="fill-rule:evenodd;clip-rule:evenodd;stroke-linejoin:round;stroke-miterlimit:2;">
    <g transform="matrix(1,0,0,1,-1,16)">
        <path d="M31.875,348.305L31.875,226.563C31.875,103.352 132.676,0.563 255.887,0.5C379.523,0.438 480.125,101.004 480.125,224.625L480.125,348.313C480.125,369.289 470.34,389.16 453.484,401.648C423.07,424.188 363.074,453.27 256,453.27C149.746,453.27 89.855,424.629 59.223,402.168C42.055,389.578 31.875,369.594 31.875,348.305Z" style="fill:rgb(234,234,234);fill-rule:nonzero;"/>
    </g>
    <g transform="matrix(1,0,0,1,-1,16)">
        <path d="M172.91,173.145C172.91,69.441 246.469,20.836 285.281,2.406C275.664,1.145 265.844,0.496 255.887,0.5C132.676,0.563 31.875,103.352 31.875,226.563L31.875,348.301C31.875,369.594 42.055,389.578 59.223,402.168C89.855,424.629 149.746,453.27 256,453.27C257.473,453.27 258.938,453.262 260.391,453.25C178.797,399.32 172.91,289.375 172.91,173.145Z" style="fill:rgb(216,215,218);fill-rule:nonzero;"/>
    </g>
    <g transform="matrix(1,0,0,1,-1,16)">
        <path d="M423.66,275.313C423.66,307.598 406.238,337.41 378.031,353.113C350.207,368.602 309.59,383.406 256,383.406C202.41,383.406 161.793,368.602 133.969,353.113C105.762,337.41 88.34,307.598 88.34,275.313L88.34,215.75C88.34,123.152 163.406,48.09 256,48.09C348.598,48.09 423.66,123.152 423.66,215.75L423.66,275.313Z" style="fill:rgb(114,206,247);fill-rule:nonzero;"/>
    </g>
    <g transform="matrix(1,0,0,1,-1,16)">
        <path d="M217.344,52.566C143.379,70.02 88.34,136.453 88.34,215.75L88.34,275.313C88.34,307.598 105.762,337.41 133.969,353.113C150.949,362.563 172.707,371.766 199.258,377.5C175.383,321.012 172.91,248.391 172.91,173.145C172.91,119.219 192.793,80.199 217.344,52.566Z" style="fill:rgb(83,184,229);fill-rule:nonzero;"/>
    </g>
    <g transform="matrix(1,0,0,1,-1,16)">
        <path d="M256,343.367C145.59,343.367 90.258,280.516 88.395,278.363C89.449,309.465 106.652,337.906 133.969,353.113C161.793,368.602 202.41,383.406 256,383.406C309.59,383.406 350.207,368.602 378.031,353.113C405.348,337.906 422.551,309.465 423.605,278.363C421.742,280.516 366.41,343.367 256,343.367Z" style="fill:rgb(137,136,144);fill-rule:nonzero;"/>
    </g>
    <g transform="matrix(1,0,0,1,-1,16)">
        <path d="M63.75,189.59C63.75,180.508 56.387,173.145 47.305,173.145L35.828,173.145C16.121,173.145 0,189.266 0,208.969C0,228.676 16.121,244.797 35.828,244.797L47.305,244.797C56.387,244.797 63.75,237.434 63.75,228.352L63.75,189.59Z" style="fill:rgb(102,211,208);fill-rule:nonzero;"/>
    </g>
    <g transform="matrix(1,0,0,1,-1,16)">
        <path d="M448.25,189.59C448.25,180.508 455.613,173.145 464.695,173.145L476.172,173.145C495.879,173.145 512,189.266 512,208.969C512,228.676 495.879,244.797 476.172,244.797L464.695,244.797C455.613,244.797 448.25,237.434 448.25,228.352L448.25,189.59Z" style="fill:rgb(125,226,226);fill-rule:nonzero;"/>
    </g>
    <g transform="matrix(1,0,0,1,-1,16)">
        <path d="M35.672,405.508C19.559,405.508 6.379,392.328 6.379,376.219L6.379,343.797C6.379,327.688 19.559,314.504 35.672,314.504C51.777,314.504 64.961,327.684 64.961,343.797L64.961,376.219C64.961,392.328 51.781,405.508 35.672,405.508Z" style="fill:rgb(255,165,181);fill-rule:nonzero;"/>
    </g>
    <g transform="matrix(1,0,0,1,-1,16)">
        <path d="M75.871,434.027C59.762,434.027 46.582,420.848 46.582,404.738L46.582,372.313C46.582,356.203 59.762,343.023 75.871,343.023C91.98,343.023 105.16,356.203 105.16,372.313L105.16,404.738C105.16,420.848 91.98,434.027 75.871,434.027Z" style="fill:rgb(255,115,125);fill-rule:nonzero;"/>
    </g>
    <g transform="matrix(1,0,0,1,-1,16)">
        <path d="M116.074,464.133C99.965,464.133 86.785,450.953 86.785,434.844L86.785,402.418C86.785,386.309 99.965,373.125 116.074,373.125C132.184,373.125 145.363,386.309 145.363,402.418L145.363,434.844C145.363,450.953 132.184,464.133 116.074,464.133Z" style="fill:rgb(255,165,181);fill-rule:nonzero;"/>
    </g>
    <g transform="matrix(1,0,0,1,-1,16)">
        <path d="M156.273,479.531C140.168,479.531 126.984,466.352 126.984,450.238L126.984,417.816C126.984,401.707 140.164,388.523 156.273,388.523C172.383,388.523 185.566,401.703 185.566,417.816L185.566,450.238C185.566,466.352 172.387,479.531 156.273,479.531Z" style="fill:rgb(255,115,125);fill-rule:nonzero;"/>
    </g>
    <g transform="matrix(1,0,0,1,-1,16)">
        <path d="M256,442.246C251.734,442.246 248.273,438.789 248.273,434.523L248.273,410.598C248.273,406.332 251.734,402.871 256,402.871C260.266,402.871 263.727,406.332 263.727,410.598L263.727,434.523C263.727,438.789 260.266,442.246 256,442.246Z" style="fill:rgb(137,136,144);fill-rule:nonzero;"/>
        <path d="M229.223,436.266C224.957,436.266 221.496,432.809 221.496,428.539L221.496,416.578C221.496,412.313 224.957,408.852 229.223,408.852C233.488,408.852 236.949,412.313 236.949,416.578L236.949,428.539C236.949,432.809 233.488,436.266 229.223,436.266Z" style="fill:rgb(137,136,144);fill-rule:nonzero;"/>
        <path d="M282.777,436.266C278.512,436.266 275.051,432.809 275.051,428.539L275.051,416.578C275.051,412.313 278.512,408.852 282.777,408.852C287.043,408.852 290.504,412.313 290.504,416.578L290.504,428.539C290.504,432.809 287.043,436.266 282.777,436.266Z" style="fill:rgb(137,136,144);fill-rule:nonzero;"/>
    </g>
    <g transform="matrix(1,0,0,1,-1,16)">
        <path d="M354.047,408.086C354.047,416.621 347.129,423.539 338.594,423.539C330.059,423.539 323.141,416.621 323.141,408.086C323.141,399.555 330.059,392.633 338.594,392.633C347.129,392.633 354.047,399.555 354.047,408.086Z" style="fill:rgb(125,226,226);fill-rule:nonzero;"/>
    </g>
    <g transform="matrix(1,0,0,1,-1,16)">
        <path d="M406.137,390.996C406.137,399.531 399.219,406.449 390.688,406.449C382.152,406.449 375.234,399.531 375.234,390.996C375.234,382.461 382.152,375.543 390.688,375.543C399.219,375.543 406.137,382.461 406.137,390.996Z" style="fill:rgb(125,226,226);fill-rule:nonzero;"/>
    </g>
    <g transform="matrix(1,0,0,1,-1,16)">
        <path d="M256,280.16C240.012,280.16 227.051,267.199 227.051,251.211L227.051,230.164C227.051,225.801 230.59,222.262 234.953,222.262L277.047,222.262C281.41,222.262 284.949,225.801 284.949,230.164L284.949,251.211C284.945,267.199 271.988,280.16 256,280.16Z" style="fill:rgb(87,86,92);fill-rule:nonzero;"/>
    </g>
    <g transform="matrix(1,0,0,1,-1,16)">
        <path d="M190.043,251.211C190.043,237.633 176.219,226.621 159.168,226.621C142.113,226.621 128.289,237.633 128.289,251.211C128.289,264.793 142.113,275.801 159.168,275.801C176.219,275.801 190.043,264.793 190.043,251.211Z" style="fill:rgb(255,166,187);fill-rule:nonzero;"/>
    </g>
    <g transform="matrix(1,0,0,1,-1,16)">
        <path d="M383.711,251.211C383.711,237.633 369.887,226.621 352.832,226.621C335.781,226.621 321.957,237.633 321.957,251.211C321.957,264.793 335.781,275.801 352.832,275.801C369.887,275.801 383.711,264.793 383.711,251.211Z" style="fill:rgb(255,166,187);fill-rule:nonzero;"/>
    </g>
    <g transform="matrix(1,0,0,1,-1,16)">
        <path d="M339.09,237.715C334.824,237.715 331.363,234.254 331.363,229.988L331.363,217.16C331.363,212.895 334.824,209.434 339.09,209.434C343.359,209.434 346.816,212.895 346.816,217.16L346.816,229.988C346.816,234.254 343.359,237.715 339.09,237.715Z" style="fill:rgb(87,86,92);fill-rule:nonzero;"/>
    </g>
    <g transform="matrix(1,0,0,1,-1,16)">
        <path d="M172.91,237.715C168.641,237.715 165.184,234.254 165.184,229.988L165.184,217.16C165.184,212.895 168.641,209.434 172.91,209.434C177.176,209.434 180.637,212.895 180.637,217.16L180.637,229.988C180.637,234.254 177.176,237.715 172.91,237.715Z" style="fill:rgb(87,86,92);fill-rule:nonzero;"/>
    </g>
    <g transform="matrix(1,0,0,1,-1,16)">
        <path d="M313.457,122.383C319.883,128.809 330.406,128.809 336.832,122.383L368.117,91.098C359.836,83.645 350.805,77.008 341.156,71.305L313.457,99.004C307.027,105.434 307.027,115.953 313.457,122.383Z" style="fill:white;fill-rule:nonzero;"/>
    </g>
    <g transform="matrix(1,0,0,1,-1,16)">
        <path d="M185.457,334.055C121.934,316.477 89.805,279.996 88.391,278.363C89.449,309.465 106.648,337.906 133.969,353.113C150.949,362.563 172.707,371.766 199.258,377.5C193.508,363.891 188.988,349.344 185.457,334.055Z" style="fill:rgb(117,116,122);fill-rule:nonzero;"/>
    </g>
    <g transform="matrix(1,0,0,1,-1,16)">
        <path d="M263.949,171.887C257.523,165.461 257.523,154.941 263.949,148.512L269.402,143.059C275.832,136.629 286.352,136.629 292.781,143.059C299.207,149.488 299.207,160.008 292.781,166.434L287.328,171.887C280.898,178.316 270.379,178.316 263.949,171.887Z" style="fill:white;fill-rule:nonzero;"/>
    </g>
</svg>
